{"title":"Red.Eye.w.Greg.Gutfeld.2014.01.08.720p.HDTV.x264-HDContentDump","uid":9458602,"size":714655698,"categoryP":"video","categoryS":"hd___tv_shows","magnet":"?xt=urn:btih:9867f66475ce3fbdc1f988b56cfc4d8f8dbc2f0f&amp;dn=Red.Eye.w.Greg.Gutfeld.2014.01.08.720p.HDTV.x264-HDContentDump&amp;tr=udp%3A%2F%2Ftracker.openbittorrent.com%3A80&amp;tr=udp%3A%2F%2Fopen.demonii.com%3A1337&amp;tr=udp%3A%2F%2Ftracker.coppersurfer.tk%3A6969&amp;tr=udp%3A%2F%2Fexodus.desync.com%3A6969","seeders":1,"leechers":0,"uploader":"Reive","files":1,"time":1389312304,"description":"Show Information\nRed Eye w/Greg Gutfeld is an American late-night/early-morning satirical talk show on the Fox News Channel, airing at 3:00 am ET Tuesday through Saturday and 11:00 pm Saturday and 2:00 am Sunday. The show features panelists and guests discussing the latest news in politics, pop culture, entertainment, business, sports, and religion. The show is hosted by Greg Gutfeld, a self-described libertarian, who is a former Maxim UK editor. \n\nEpisode Information\nTonight on Red Eye Greg welcomes guests Dean Cain, Ellison Barber and Gavin McInnes!\n\nScreenshots &lt;a href=&quot;\nhttp://i.imgur.com/HluYWfQ.png&quot; rel=&quot;nofollow&quot; target=&quot;_NEW&quot;&gt;\nhttp://i.imgur.com/HluYWfQ.png&lt;/a&gt; &lt;a href=&quot;\nhttp://i.imgur.com/U0RPf6N.png&quot; rel=&quot;nofollow&quot; target=&quot;_NEW&quot;&gt;\nhttp://i.imgur.com/U0RPf6N.png&lt;/a&gt;\n\nGeneral \nComplete name : H:TelevisionRed Eye w Greg GutfeldRed Eye w Greg Gutfeld 2014Red.Eye.w.Greg.Gutfeld.2014.01.08.720p.HDTV.x264-HDContentDump.mp4 \nFormat : MPEG-4 \nFormat profile : Base Media / Version 2 \nCodec ID : mp42 \nFile size : 682 MiB \nDuration : 43mn 20s \nOverall bit rate mode : Variable \nOverall bit rate : 2 198 Kbps \nEncoded date : UTC 2014-01-07 23:44:43 \nTagged date : UTC 2014-01-07 23:44:43 \ngsst : 0 \ngstd : 2600680 \ngssd : B4A7DD604HH1389246104139422 \ngshh : r4---sn-p5qlsu7e.googlevideo.com \n\nVideo \nID : 1 \nFormat : AVC \nFormat/Info : Advanced Video Codec \nFormat profile : &lt;a class=&quot;__cf_email__&quot; href=&quot;/cdn-cgi/l/email-protection&quot; data-cfemail=&quot;2860414f4068641b0619&quot;&gt;[email&amp;#160;protected]&lt;/a&gt;&lt;script cf-hash='f9e31' type=&quot;text/javascript&quot;&gt;\n/* &lt;![CDATA[ */!function(){try{var t=&quot;currentScript&quot;in document?document.currentScript:function(){for(var t=document.getElementsByTagName(&quot;script&quot;),e=t.length;e--;)if(t[e].getAttribute(&quot;cf-hash&quot;))return t[e]}();if(t&amp;&amp;t.previousSibling){var e,r,n,i,c=t.previousSibling,a=c.getAttribute(&quot;data-cfemail&quot;);if(a){for(e=&quot;&quot;,r=parseInt(a.substr(0,2),16),n=2;a.length-n;n+=2)i=parseInt(a.substr(n,2),16)^r,e+=String.fromCharCode(i);e=document.createTextNode(e),c.parentNode.replaceChild(e,c)}}}catch(u){}}();/* ]]&gt; */&lt;/script&gt; \nFormat settings, CABAC : Yes \nFormat settings, ReFrames : 1 frame \nFormat settings, GOP : M=1, N=60 \nCodec ID : avc1 \nCodec ID/Info : Advanced Video Coding \nDuration : 43mn 20s \nBit rate : 2 004 Kbps \nMaximum bit rate : 9 172 Kbps \nWidth : 1 280 pixels \nHeight : 720 pixels \nDisplay aspect ratio : 16:9 \nFrame rate mode : Variable \nFrame rate : 29.970 fps \nMinimum frame rate : 29.098 fps \nMaximum frame rate : 29.970 fps \nColor space : YUV \nChroma subsampling : 4:2:0 \nBit depth : 8 bits \nScan type : Progressive \nBits/(Pixel*Frame) : 0.073 \nStream size : 621 MiB (91%) \nTagged date : UTC 2014-01-07 23:47:03 \n\nAudio \nID : 2 \nFormat : AAC \nFormat/Info : Advanced Audio Codec \nFormat profile : LC \nCodec ID : 40 \nDuration : 43mn 20s \nBit rate mode : Variable \nBit rate : 192 Kbps \nMaximum bit rate : 202 Kbps \nChannel(s) : 2 channels \nChannel positions : Front: L R \nSampling rate : 44.1 KHz \nCompression mode : Lossy \nStream size : 59.5 MiB (9%) \nTitle : IsoMedia File Produced by Google, 5-11-2011 \nEncoded date : UTC 2014-01-07 23:46:11 \nTagged date : UTC 2014-01-07 23:47:03 \n\n","torrent":{"xt":"urn:btih:9867f66475ce3fbdc1f988b56cfc4d8f8dbc2f0f","amp;dn":"Red.Eye.w.Greg.Gutfeld.2014.01.08.720p.HDTV.x264-HDContentDump","amp;tr":["udp%3A%2F%2Ftracker.openbittorrent.com%3A80","udp%3A%2F%2Fopen.demonii.com%3A1337","udp%3A%2F%2Ftracker.coppersurfer.tk%3A6969","udp%3A%2F%2Fexodus.desync.com%3A6969"],"infoHash":"9867f66475ce3fbdc1f988b56cfc4d8f8dbc2f0f","infoHashBuffer":{"type":"Buffer","data":[152,103,246,100,117,206,63,189,193,249,136,181,108,252,77,143,141,188,47,15]},"announce":[],"urlList":[]}}